<svg width="72" height="72" viewBox="0 0 72 72" fill="none" xmlns="http://www.w3.org/2000/svg">
<rect width="72" height="72" rx="4" fill="#E7F0FA"/>
<g clip-path="url(#clip0_1_1078)">
<path opacity="0.2" d="M29.75 41C34.2373 41 37.875 37.3623 37.875 32.875C37.875 28.3877 34.2373 24.75 29.75 24.75C25.2627 24.75 21.625 28.3877 21.625 32.875C21.625 37.3623 25.2627 41 29.75 41Z" fill="#0A65CC"/>
<path d="M29.75 41C34.2373 41 37.875 37.3623 37.875 32.875C37.875 28.3877 34.2373 24.75 29.75 24.75C25.2627 24.75 21.625 28.3877 21.625 32.875C21.625 37.3623 25.2627 41 29.75 41Z" stroke="#0A65CC" stroke-width="2" stroke-miterlimit="10"/>
<path d="M40.2832 25.0526C41.4007 24.7377 42.5728 24.666 43.7204 24.8422C44.8679 25.0184 45.9644 25.4386 46.936 26.0743C47.9075 26.7099 48.7316 27.5465 49.3526 28.5274C49.9737 29.5084 50.3773 30.6111 50.5363 31.7612C50.6953 32.9113 50.606 34.0821 50.2744 35.1948C49.9427 36.3075 49.3766 37.3362 48.6139 38.2116C47.8513 39.0871 46.9099 39.7889 45.8531 40.2699C44.7964 40.7508 43.6489 40.9998 42.4878 40.9999" stroke="#0A65CC" stroke-width="2" stroke-linecap="round" stroke-linejoin="round"/>
<path d="M18.499 46.8432C19.768 45.0382 21.4526 43.565 23.4107 42.548C25.3687 41.531 27.5427 41.0001 29.7492 41C31.9556 40.9999 34.1296 41.5307 36.0878 42.5476C38.0459 43.5644 39.7306 45.0375 40.9997 46.8424" stroke="#0A65CC" stroke-width="2" stroke-linecap="round" stroke-linejoin="round"/>
<path d="M42.4883 41C44.6949 40.9984 46.8694 41.5285 48.8277 42.5455C50.786 43.5625 52.4704 45.0364 53.7383 46.8424" stroke="#0A65CC" stroke-width="2" stroke-linecap="round" stroke-linejoin="round"/>
</g>
<defs>
<clipPath id="clip0_1_1078">
<rect width="40" height="40" fill="white" transform="translate(16 16)"/>
</clipPath>
</defs>
</svg>
