<svg width="80" height="64" viewBox="0 0 80 64" fill="none" xmlns="http://www.w3.org/2000/svg">
<path d="M72 8H40L32 0H8C3.6 0 0.04 3.6 0.04 8L0 56C0 60.4 3.6 64 8 64H72C76.4 64 80 60.4 80 56V16C80 11.6 76.4 8 72 8ZM52 20C56.4 20 60 23.6 60 28C60 32.4 56.4 36 52 36C47.6 36 44 32.4 44 28C44 23.6 47.6 20 52 20ZM68 52H36V48C36 42.68 46.68 40 52 40C57.32 40 68 42.68 68 48V52Z" fill="#0A65CC"/>
<path d="M30.1429 15H14.9048C13.8571 15 13.0095 15.8437 13.0095 16.875L13 28.125C13 29.1563 13.8571 30 14.9048 30H30.1429C31.1905 30 32.0476 29.1563 32.0476 28.125V16.875C32.0476 15.8437 31.1905 15 30.1429 15ZM30.1429 18.75L22.5238 23.4375L14.9048 18.75V16.875L22.5238 21.5625L30.1429 16.875V18.75Z" fill="white"/>
</svg>
