<svg width="80" height="80" viewBox="0 0 80 80" fill="none" xmlns="http://www.w3.org/2000/svg">
<path d="M40 0C17.92 0 0 17.92 0 40C0 62.08 17.92 80 40 80C62.08 80 80 62.08 80 40C80 17.92 62.08 0 40 0Z" fill="#0A65CC"/>
<path d="M35.8182 37C29.7909 37 24.9091 31.8538 24.9091 25.5C24.9091 19.1462 29.7909 14 35.8182 14C41.8455 14 46.7273 19.1462 46.7273 25.5C46.7273 31.8538 41.8455 37 35.8182 37ZM60.3636 31.25V22.625H65.8182V31.25H74V37H65.8182V45.625H60.3636V37H52.1818V31.25H60.3636ZM35.8182 42.75C43.1 42.75 57.6364 46.6025 57.6364 54.25V60H14V54.25C14 46.6025 28.5364 42.75 35.8182 42.75Z" fill="white"/>
</svg>
