<svg width="72" height="72" viewBox="0 0 72 72" fill="none" xmlns="http://www.w3.org/2000/svg">
<rect width="72" height="72" rx="4" fill="#E7F0FA"/>
<g clip-path="url(#clip0_2_8433)">
<path opacity="0.2" d="M35.9998 39.75C30.7338 39.7583 25.5593 38.3739 21.001 35.7373V48.5C21.001 48.6642 21.0333 48.8267 21.0961 48.9784C21.1589 49.1301 21.251 49.2679 21.3671 49.3839C21.4832 49.5 21.621 49.5921 21.7726 49.6549C21.9243 49.7177 22.0868 49.75 22.251 49.75H49.751C49.9151 49.75 50.0777 49.7177 50.2293 49.6549C50.381 49.5921 50.5188 49.5 50.6349 49.3839C50.7509 49.2679 50.843 49.1301 50.9058 48.9784C50.9686 48.8267 51.001 48.6642 51.001 48.5V35.7358C46.4421 38.3734 41.2667 39.7583 35.9998 39.75Z" fill="#0A65CC"/>
<path d="M49.751 27.25H22.251C21.5606 27.25 21.001 27.8096 21.001 28.5V48.5C21.001 49.1904 21.5606 49.75 22.251 49.75H49.751C50.4413 49.75 51.001 49.1904 51.001 48.5V28.5C51.001 27.8096 50.4413 27.25 49.751 27.25Z" stroke="#0A65CC" stroke-width="2" stroke-linecap="round" stroke-linejoin="round"/>
<path d="M42.25 27.25V24.75C42.25 24.087 41.9866 23.4511 41.5178 22.9822C41.0489 22.5134 40.413 22.25 39.75 22.25H32.25C31.587 22.25 30.9511 22.5134 30.4822 22.9822C30.0134 23.4511 29.75 24.087 29.75 24.75V27.25" stroke="#0A65CC" stroke-width="2" stroke-linecap="round" stroke-linejoin="round"/>
<path d="M51.0012 35.7358C46.4423 38.3734 41.2669 39.7583 36 39.75C30.7339 39.7583 25.5594 38.3739 21.001 35.7372" stroke="#0A65CC" stroke-width="2" stroke-linecap="round" stroke-linejoin="round"/>
<path d="M34.125 34.75H37.875" stroke="#0A65CC" stroke-width="2" stroke-linecap="round" stroke-linejoin="round"/>
</g>
<defs>
<clipPath id="clip0_2_8433">
<rect width="40" height="40" fill="white" transform="translate(16 16)"/>
</clipPath>
</defs>
</svg>
