<svg width="32" height="32" viewBox="0 0 32 32" fill="none" xmlns="http://www.w3.org/2000/svg">
    <g clip-path="url(#clip0_15_3557)">
        <path d="M27.001 9H5.00098C4.44869 9 4.00098 9.44772 4.00098 10V26C4.00098 26.5523 4.44869 27 5.00098 27H27.001C27.5533 27 28.001 26.5523 28.001 26V10C28.001 9.44772 27.5533 9 27.001 9Z" stroke="#0A65CC" stroke-width="2" stroke-linecap="round" stroke-linejoin="round"/>
        <path d="M21 9V7C21 6.46957 20.7893 5.96086 20.4142 5.58579C20.0391 5.21071 19.5304 5 19 5H13C12.4696 5 11.9609 5.21071 11.5858 5.58579C11.2107 5.96086 11 6.46957 11 7V9" stroke="#0A65CC" stroke-width="2" stroke-linecap="round" stroke-linejoin="round"/>
        <path d="M28.001 15.7891C24.3539 17.8991 20.2136 19.007 16 19.0004C11.7872 19.007 7.64755 17.8995 4.00085 15.7901" stroke="#0A65CC" stroke-width="2" stroke-linecap="round" stroke-linejoin="round"/>
        <path d="M14.5 15H17.5" stroke="#0A65CC" stroke-width="2" stroke-linecap="round" stroke-linejoin="round"/>
    </g>
    <defs>
        <clipPath id="clip0_15_3557">
            <rect width="32" height="32" fill="white"/>
        </clipPath>
    </defs>
</svg>