<svg width="88" height="81" viewBox="0 0 88 81" fill="none" xmlns="http://www.w3.org/2000/svg">
<path d="M44 10C24 10 6.92 22.44 0 40C6.92 57.56 24 70 44 70C64 70 81.08 57.56 88 40C81.08 22.44 64 10 44 10ZM44 60C32.96 60 24 51.04 24 40C24 28.96 32.96 20 44 20C55.04 20 64 28.96 64 40C64 51.04 55.04 60 44 60ZM44 28C37.36 28 32 33.36 32 40C32 46.64 37.36 52 44 52C50.64 52 56 46.64 56 40C56 33.36 50.64 28 44 28Z" fill="#0A65CC"/>
<rect x="12" y="71.3838" width="88.072" height="14.7453" transform="rotate(-54.1469 12 71.3838)" fill="#171616"/>
</svg>
