<svg width="22" height="21" viewBox="0 0 22 21" fill="none" xmlns="http://www.w3.org/2000/svg">
<path d="M9.92411 1.51345C10.3643 0.621652 11.636 0.621651 12.0762 1.51345L14.3262 6.07174C14.5009 6.42555 14.8383 6.67091 15.2287 6.72797L20.2623 7.4637C21.2462 7.60751 21.6383 8.81692 20.926 9.51072L17.2856 13.0564C17.0026 13.3321 16.8734 13.7295 16.9402 14.1189L17.7991 19.1266C17.9672 20.107 16.9382 20.8546 16.0578 20.3916L11.5587 18.0256C11.209 17.8417 10.7913 17.8417 10.4416 18.0256L5.94252 20.3916C5.06217 20.8546 4.03311 20.107 4.20125 19.1266L5.06013 14.1189C5.12693 13.7295 4.99773 13.3321 4.71468 13.0564L1.07431 9.51072C0.362 8.81692 0.754139 7.60751 1.73804 7.4637L6.7716 6.72797C7.16203 6.67091 7.49945 6.42555 7.6741 6.07174L9.92411 1.51345Z" fill="#441B1B"/>
</svg>
